<svg id="Layer_1" data-name="Layer 1" xmlns="http://www.w3.org/2000/svg" xmlns:xlink="http://www.w3.org/1999/xlink" viewBox="0 0 33.79 21.13"><defs><style>.cls-1,.cls-2{fill:none;}.cls-2{stroke:#000;stroke-miterlimit:10;}.cls-3{fill:url(#New_Pattern_Swatch_1);}</style><pattern id="New_Pattern_Swatch_1" data-name="New Pattern Swatch 1" x="0.35" y="9.06" width="5" height="5" patternUnits="userSpaceOnUse" viewBox="0 0 5 5"><rect class="cls-1" width="5" height="5"/><line class="cls-2" x1="14.94" y1="14.94" x2="4.5" y2="4.5"/><line class="cls-2" x1="9.94" y1="14.94" x2="-0.5" y2="4.5"/><line class="cls-2" x1="4.94" y1="14.94" x2="-5.5" y2="4.5"/><line class="cls-2" x1="-0.06" y1="14.94" x2="-10.5" y2="4.5"/><line class="cls-2" x1="14.94" y1="9.94" x2="4.5" y2="-0.5"/><line class="cls-2" x1="9.94" y1="9.94" x2="-0.5" y2="-0.5"/><line class="cls-2" x1="4.94" y1="9.94" x2="-5.5" y2="-0.5"/><line class="cls-2" x1="-0.06" y1="9.94" x2="-10.5" y2="-0.5"/><line class="cls-2" x1="14.94" y1="4.94" x2="4.5" y2="-5.5"/><line class="cls-2" x1="9.94" y1="4.94" x2="-0.5" y2="-5.5"/><line class="cls-2" x1="4.94" y1="4.94" x2="-5.5" y2="-5.5"/><line class="cls-2" x1="-0.06" y1="4.94" x2="-10.5" y2="-5.5"/><line class="cls-2" x1="14.94" y1="-0.06" x2="4.5" y2="-10.5"/><line class="cls-2" x1="9.94" y1="-0.06" x2="-0.5" y2="-10.5"/><line class="cls-2" x1="4.94" y1="-0.06" x2="-5.5" y2="-10.5"/><line class="cls-2" x1="-0.06" y1="-0.06" x2="-10.5" y2="-10.5"/></pattern></defs><title>33</title><line class="cls-2" x1="0.35" y1="9.06" x2="9.35" y2="18.06"/><rect class="cls-3" x="17.48" width="16.31" height="21.13"/></svg>