<svg id="Layer_1" data-name="Layer 1" xmlns="http://www.w3.org/2000/svg" xmlns:xlink="http://www.w3.org/1999/xlink" viewBox="0 0 20.21 18.21"><defs><style>.cls-1,.cls-2{fill:none;}.cls-2,.cls-3{stroke:#000;stroke-miterlimit:10;}.cls-3{fill:url(#New_Pattern_2);}</style><pattern id="New_Pattern_2" data-name="New Pattern 2" x="5.85" y="4.85" width="10" height="10" patternUnits="userSpaceOnUse" viewBox="0 0 10 10"><rect class="cls-1" width="10" height="10"/><line class="cls-2" x1="5.38" y1="5.38" x2="15.63" y2="15.63"/><line class="cls-2" x1="-4.62" y1="5.38" x2="5.63" y2="15.63"/><line class="cls-2" x1="5.38" y1="5.38" x2="15.63" y2="15.63"/><line class="cls-2" x1="0.38" y1="0.38" x2="10.63" y2="10.63"/><line class="cls-2" x1="-4.62" y1="5.38" x2="5.63" y2="15.63"/><line class="cls-2" x1="5.38" y1="-4.62" x2="15.63" y2="5.63"/><line class="cls-2" x1="-9.62" y1="0.38" x2="0.63" y2="10.63"/><line class="cls-2" x1="-4.62" y1="-4.62" x2="5.63" y2="5.63"/><line class="cls-2" x1="5.38" y1="-4.62" x2="15.63" y2="5.63"/><line class="cls-2" x1="0.38" y1="-9.62" x2="10.63" y2="0.63"/><line class="cls-2" x1="-4.62" y1="-4.62" x2="5.63" y2="5.63"/><line class="cls-2" x1="-9.62" y1="-9.62" x2="0.63" y2="0.63"/></pattern></defs><title>18</title><line class="cls-3" x1="5.35" y1="4.35" x2="14.85" y2="13.85"/><line class="cls-3" x1="0.35" y1="8.35" x2="9.85" y2="17.85"/><line class="cls-3" x1="10.35" y1="0.35" x2="19.85" y2="9.85"/></svg>